<mxfile host="app.diagrams.net" modified="2022-12-04T03:13:21.102Z" agent="5.0 (Windows NT 10.0; Win64; x64) AppleWebKit/537.36 (KHTML, like Gecko) Chrome/108.0.0.0 Safari/537.36" version="20.6.0" etag="yhXUsaGow5k_qJDhkxT8" type="github" pages="3">
  <diagram id="u1040GB_vg0FGmKQEHFV" name="Page-1">
    <mxGraphModel dx="1021" dy="529" grid="1" gridSize="10" guides="1" tooltips="1" connect="1" arrows="1" fold="1" page="1" pageScale="1" pageWidth="850" pageHeight="1100" math="0" shadow="0">
      <root>
        <mxCell id="0" />
        <mxCell id="1" parent="0" />
        <mxCell id="L32mj8uIGyRKE1vUMHSN-1" value="System" style="swimlane;whiteSpace=wrap;html=1;startSize=23;" vertex="1" parent="1">
          <mxGeometry x="400" y="7" width="200" height="833" as="geometry" />
        </mxCell>
        <mxCell id="L32mj8uIGyRKE1vUMHSN-37" value="Validate customer name or customer card number" style="whiteSpace=wrap;html=1;rounded=1;" vertex="1" parent="L32mj8uIGyRKE1vUMHSN-1">
          <mxGeometry x="40" y="566" width="120" height="50" as="geometry" />
        </mxCell>
        <mxCell id="L32mj8uIGyRKE1vUMHSN-2" value="" style="endArrow=none;html=1;rounded=0;" edge="1" parent="1">
          <mxGeometry width="50" height="50" relative="1" as="geometry">
            <mxPoint x="400" y="387" as="sourcePoint" />
            <mxPoint x="400" y="57" as="targetPoint" />
          </mxGeometry>
        </mxCell>
        <mxCell id="L32mj8uIGyRKE1vUMHSN-3" style="edgeStyle=orthogonalEdgeStyle;rounded=0;orthogonalLoop=1;jettySize=auto;html=1;entryX=0.498;entryY=0.051;entryDx=0;entryDy=0;entryPerimeter=0;" edge="1" parent="1" source="L32mj8uIGyRKE1vUMHSN-4" target="L32mj8uIGyRKE1vUMHSN-9">
          <mxGeometry relative="1" as="geometry">
            <mxPoint x="295" y="122" as="targetPoint" />
          </mxGeometry>
        </mxCell>
        <mxCell id="L32mj8uIGyRKE1vUMHSN-4" value="" style="ellipse;fillColor=strokeColor;" vertex="1" parent="1">
          <mxGeometry x="280" y="57" width="30" height="30" as="geometry" />
        </mxCell>
        <mxCell id="L32mj8uIGyRKE1vUMHSN-5" style="edgeStyle=orthogonalEdgeStyle;rounded=0;orthogonalLoop=1;jettySize=auto;html=1;entryX=0.5;entryY=1;entryDx=0;entryDy=0;" edge="1" parent="1" source="L32mj8uIGyRKE1vUMHSN-9" target="L32mj8uIGyRKE1vUMHSN-10">
          <mxGeometry relative="1" as="geometry">
            <Array as="points">
              <mxPoint x="215" y="172" />
            </Array>
          </mxGeometry>
        </mxCell>
        <mxCell id="L32mj8uIGyRKE1vUMHSN-6" value="no" style="edgeLabel;html=1;align=center;verticalAlign=middle;resizable=0;points=[];" vertex="1" connectable="0" parent="L32mj8uIGyRKE1vUMHSN-5">
          <mxGeometry x="-0.5833" y="-1" relative="1" as="geometry">
            <mxPoint x="5" y="1" as="offset" />
          </mxGeometry>
        </mxCell>
        <mxCell id="L32mj8uIGyRKE1vUMHSN-7" style="edgeStyle=orthogonalEdgeStyle;rounded=0;orthogonalLoop=1;jettySize=auto;html=1;" edge="1" parent="1" source="L32mj8uIGyRKE1vUMHSN-9" target="L32mj8uIGyRKE1vUMHSN-15">
          <mxGeometry relative="1" as="geometry" />
        </mxCell>
        <mxCell id="L32mj8uIGyRKE1vUMHSN-8" value="yes" style="edgeLabel;html=1;align=center;verticalAlign=middle;resizable=0;points=[];" vertex="1" connectable="0" parent="L32mj8uIGyRKE1vUMHSN-7">
          <mxGeometry x="-0.7677" relative="1" as="geometry">
            <mxPoint as="offset" />
          </mxGeometry>
        </mxCell>
        <mxCell id="L32mj8uIGyRKE1vUMHSN-9" value="Authenticate ?" style="rhombus;rounded=1;" vertex="1" parent="1">
          <mxGeometry x="246.79" y="127" width="96.43" height="90" as="geometry" />
        </mxCell>
        <mxCell id="L32mj8uIGyRKE1vUMHSN-10" value="" style="shape=sumEllipse;perimeter=ellipsePerimeter;whiteSpace=wrap;html=1;backgroundOutline=1;" vertex="1" parent="1">
          <mxGeometry x="200" y="67" width="30" height="30" as="geometry" />
        </mxCell>
        <mxCell id="L32mj8uIGyRKE1vUMHSN-11" style="edgeStyle=orthogonalEdgeStyle;rounded=0;orthogonalLoop=1;jettySize=auto;html=1;entryX=1;entryY=0.5;entryDx=0;entryDy=0;" edge="1" parent="1" source="L32mj8uIGyRKE1vUMHSN-15" target="L32mj8uIGyRKE1vUMHSN-4">
          <mxGeometry relative="1" as="geometry">
            <Array as="points">
              <mxPoint x="360" y="287" />
              <mxPoint x="360" y="72" />
            </Array>
          </mxGeometry>
        </mxCell>
        <mxCell id="L32mj8uIGyRKE1vUMHSN-12" value="no" style="edgeLabel;html=1;align=center;verticalAlign=middle;resizable=0;points=[];" vertex="1" connectable="0" parent="L32mj8uIGyRKE1vUMHSN-11">
          <mxGeometry x="-0.9586" y="2" relative="1" as="geometry">
            <mxPoint x="5" y="2" as="offset" />
          </mxGeometry>
        </mxCell>
        <mxCell id="L32mj8uIGyRKE1vUMHSN-13" style="edgeStyle=orthogonalEdgeStyle;rounded=0;orthogonalLoop=1;jettySize=auto;html=1;entryX=0.5;entryY=0;entryDx=0;entryDy=0;" edge="1" parent="1" source="L32mj8uIGyRKE1vUMHSN-15" target="L32mj8uIGyRKE1vUMHSN-18">
          <mxGeometry relative="1" as="geometry">
            <Array as="points">
              <mxPoint x="295" y="337" />
              <mxPoint x="295" y="337" />
            </Array>
          </mxGeometry>
        </mxCell>
        <mxCell id="L32mj8uIGyRKE1vUMHSN-14" value="yes" style="edgeLabel;html=1;align=center;verticalAlign=middle;resizable=0;points=[];" vertex="1" connectable="0" parent="L32mj8uIGyRKE1vUMHSN-13">
          <mxGeometry x="-0.2122" relative="1" as="geometry">
            <mxPoint as="offset" />
          </mxGeometry>
        </mxCell>
        <mxCell id="L32mj8uIGyRKE1vUMHSN-15" value="Authorize ?" style="rhombus;whiteSpace=wrap;html=1;rounded=1;shadow=0;" vertex="1" parent="1">
          <mxGeometry x="255" y="247" width="80" height="80" as="geometry" />
        </mxCell>
        <mxCell id="L32mj8uIGyRKE1vUMHSN-16" value="You are here" style="text;html=1;strokeColor=none;fillColor=none;align=center;verticalAlign=middle;whiteSpace=wrap;rounded=0;" vertex="1" parent="1">
          <mxGeometry x="238.39999999999998" y="27" width="113.21" height="30" as="geometry" />
        </mxCell>
        <mxCell id="L32mj8uIGyRKE1vUMHSN-17" value="" style="edgeStyle=orthogonalEdgeStyle;rounded=0;orthogonalLoop=1;jettySize=auto;html=1;" edge="1" parent="1" source="L32mj8uIGyRKE1vUMHSN-18" target="L32mj8uIGyRKE1vUMHSN-35">
          <mxGeometry relative="1" as="geometry">
            <mxPoint x="294.969696969697" y="417" as="targetPoint" />
          </mxGeometry>
        </mxCell>
        <mxCell id="L32mj8uIGyRKE1vUMHSN-18" value="Add Top-up" style="rounded=1;whiteSpace=wrap;html=1;" vertex="1" parent="1">
          <mxGeometry x="240.02" y="359" width="109.98" height="40" as="geometry" />
        </mxCell>
        <mxCell id="L32mj8uIGyRKE1vUMHSN-33" value="Cient" style="swimlane;whiteSpace=wrap;html=1;startSize=23;" vertex="1" parent="1">
          <mxGeometry x="190" y="7" width="210" height="833" as="geometry" />
        </mxCell>
        <mxCell id="L32mj8uIGyRKE1vUMHSN-35" value="" style="html=1;points=[];perimeter=orthogonalPerimeter;fillColor=strokeColor;rounded=1;shadow=0;rotation=90;" vertex="1" parent="L32mj8uIGyRKE1vUMHSN-33">
          <mxGeometry x="102.5" y="378" width="5" height="80" as="geometry" />
        </mxCell>
        <mxCell id="L32mj8uIGyRKE1vUMHSN-45" value="Top-up by customer name" style="whiteSpace=wrap;html=1;rounded=1;" vertex="1" parent="L32mj8uIGyRKE1vUMHSN-33">
          <mxGeometry x="110" y="453" width="90" height="53" as="geometry" />
        </mxCell>
        <mxCell id="L32mj8uIGyRKE1vUMHSN-47" value="Top-up by customer card number" style="whiteSpace=wrap;html=1;rounded=1;" vertex="1" parent="L32mj8uIGyRKE1vUMHSN-33">
          <mxGeometry x="10" y="453" width="90" height="53" as="geometry" />
        </mxCell>
        <mxCell id="L32mj8uIGyRKE1vUMHSN-54" style="edgeStyle=orthogonalEdgeStyle;rounded=0;sketch=0;orthogonalLoop=1;jettySize=auto;html=1;entryX=0.5;entryY=0;entryDx=0;entryDy=0;" edge="1" parent="L32mj8uIGyRKE1vUMHSN-33" source="L32mj8uIGyRKE1vUMHSN-48" target="L32mj8uIGyRKE1vUMHSN-53">
          <mxGeometry relative="1" as="geometry" />
        </mxCell>
        <mxCell id="L32mj8uIGyRKE1vUMHSN-48" value="" style="html=1;points=[];perimeter=orthogonalPerimeter;fillColor=strokeColor;rounded=1;shadow=0;rotation=90;" vertex="1" parent="L32mj8uIGyRKE1vUMHSN-33">
          <mxGeometry x="102.5" y="509" width="5" height="80" as="geometry" />
        </mxCell>
        <mxCell id="L32mj8uIGyRKE1vUMHSN-49" value="" style="endArrow=classic;html=1;rounded=0;entryX=0.5;entryY=0;entryDx=0;entryDy=0;exitX=1.023;exitY=0.684;exitDx=0;exitDy=0;exitPerimeter=0;" edge="1" parent="L32mj8uIGyRKE1vUMHSN-33" source="L32mj8uIGyRKE1vUMHSN-35" target="L32mj8uIGyRKE1vUMHSN-47">
          <mxGeometry width="50" height="50" relative="1" as="geometry">
            <mxPoint x="100" y="483" as="sourcePoint" />
            <mxPoint x="150" y="433" as="targetPoint" />
            <Array as="points">
              <mxPoint x="90" y="433" />
              <mxPoint x="55" y="433" />
            </Array>
          </mxGeometry>
        </mxCell>
        <mxCell id="L32mj8uIGyRKE1vUMHSN-50" value="" style="endArrow=classic;html=1;rounded=0;sketch=0;entryX=0.5;entryY=0;entryDx=0;entryDy=0;exitX=0.742;exitY=0.316;exitDx=0;exitDy=0;exitPerimeter=0;" edge="1" parent="L32mj8uIGyRKE1vUMHSN-33" source="L32mj8uIGyRKE1vUMHSN-35" target="L32mj8uIGyRKE1vUMHSN-45">
          <mxGeometry width="50" height="50" relative="1" as="geometry">
            <mxPoint x="100" y="483" as="sourcePoint" />
            <mxPoint x="150" y="433" as="targetPoint" />
            <Array as="points">
              <mxPoint x="120" y="433" />
              <mxPoint x="155" y="433" />
            </Array>
          </mxGeometry>
        </mxCell>
        <mxCell id="L32mj8uIGyRKE1vUMHSN-51" value="" style="endArrow=classic;html=1;rounded=0;sketch=0;entryX=0.052;entryY=0.688;entryDx=0;entryDy=0;entryPerimeter=0;exitX=0.5;exitY=1;exitDx=0;exitDy=0;" edge="1" parent="L32mj8uIGyRKE1vUMHSN-33" source="L32mj8uIGyRKE1vUMHSN-47" target="L32mj8uIGyRKE1vUMHSN-48">
          <mxGeometry width="50" height="50" relative="1" as="geometry">
            <mxPoint x="10" y="533" as="sourcePoint" />
            <mxPoint x="60" y="483" as="targetPoint" />
            <Array as="points">
              <mxPoint x="55" y="523" />
              <mxPoint x="90" y="523" />
            </Array>
          </mxGeometry>
        </mxCell>
        <mxCell id="L32mj8uIGyRKE1vUMHSN-52" value="" style="endArrow=classic;html=1;rounded=0;sketch=0;exitX=0.5;exitY=1;exitDx=0;exitDy=0;entryX=-0.106;entryY=0.313;entryDx=0;entryDy=0;entryPerimeter=0;" edge="1" parent="L32mj8uIGyRKE1vUMHSN-33" source="L32mj8uIGyRKE1vUMHSN-45" target="L32mj8uIGyRKE1vUMHSN-48">
          <mxGeometry width="50" height="50" relative="1" as="geometry">
            <mxPoint x="255" y="523" as="sourcePoint" />
            <mxPoint x="120" y="543" as="targetPoint" />
            <Array as="points">
              <mxPoint x="155" y="523" />
              <mxPoint x="120" y="523" />
            </Array>
          </mxGeometry>
        </mxCell>
        <mxCell id="L32mj8uIGyRKE1vUMHSN-53" value="Select bundle" style="rounded=1;whiteSpace=wrap;html=1;" vertex="1" parent="L32mj8uIGyRKE1vUMHSN-33">
          <mxGeometry x="50.01000000000002" y="580" width="109.98" height="40" as="geometry" />
        </mxCell>
        <mxCell id="L32mj8uIGyRKE1vUMHSN-55" style="edgeStyle=orthogonalEdgeStyle;rounded=0;sketch=0;orthogonalLoop=1;jettySize=auto;html=1;entryX=0.011;entryY=0.677;entryDx=0;entryDy=0;entryPerimeter=0;" edge="1" parent="1" source="L32mj8uIGyRKE1vUMHSN-53" target="L32mj8uIGyRKE1vUMHSN-37">
          <mxGeometry relative="1" as="geometry" />
        </mxCell>
        <mxCell id="L32mj8uIGyRKE1vUMHSN-56" value="" style="edgeStyle=orthogonalEdgeStyle;rounded=0;orthogonalLoop=1;jettySize=auto;html=1;" edge="1" parent="1" source="L32mj8uIGyRKE1vUMHSN-59" target="L32mj8uIGyRKE1vUMHSN-60">
          <mxGeometry relative="1" as="geometry" />
        </mxCell>
        <mxCell id="L32mj8uIGyRKE1vUMHSN-57" value="no" style="edgeLabel;html=1;align=center;verticalAlign=middle;resizable=0;points=[];" vertex="1" connectable="0" parent="L32mj8uIGyRKE1vUMHSN-56">
          <mxGeometry x="-0.6752" relative="1" as="geometry">
            <mxPoint as="offset" />
          </mxGeometry>
        </mxCell>
        <mxCell id="L32mj8uIGyRKE1vUMHSN-58" value="" style="edgeStyle=orthogonalEdgeStyle;rounded=0;orthogonalLoop=1;jettySize=auto;html=1;" edge="1" parent="1" source="L32mj8uIGyRKE1vUMHSN-59" target="L32mj8uIGyRKE1vUMHSN-62">
          <mxGeometry relative="1" as="geometry" />
        </mxCell>
        <mxCell id="L32mj8uIGyRKE1vUMHSN-69" value="yes" style="edgeLabel;html=1;align=center;verticalAlign=middle;resizable=0;points=[];" vertex="1" connectable="0" parent="L32mj8uIGyRKE1vUMHSN-58">
          <mxGeometry x="-0.7647" y="1" relative="1" as="geometry">
            <mxPoint as="offset" />
          </mxGeometry>
        </mxCell>
        <mxCell id="L32mj8uIGyRKE1vUMHSN-59" value="Valid ?" style="rhombus;whiteSpace=wrap;html=1;rounded=1;" vertex="1" parent="1">
          <mxGeometry x="470.03" y="640" width="60" height="60" as="geometry" />
        </mxCell>
        <mxCell id="L32mj8uIGyRKE1vUMHSN-60" value="Show error message" style="whiteSpace=wrap;html=1;rounded=1;" vertex="1" parent="1">
          <mxGeometry x="240.02" y="650" width="120" height="40" as="geometry" />
        </mxCell>
        <mxCell id="L32mj8uIGyRKE1vUMHSN-61" value="" style="edgeStyle=orthogonalEdgeStyle;rounded=0;orthogonalLoop=1;jettySize=auto;html=1;" edge="1" parent="1" source="L32mj8uIGyRKE1vUMHSN-62" target="L32mj8uIGyRKE1vUMHSN-64">
          <mxGeometry relative="1" as="geometry" />
        </mxCell>
        <mxCell id="L32mj8uIGyRKE1vUMHSN-62" value="save Top up information and update customer balance to database" style="whiteSpace=wrap;html=1;rounded=1;" vertex="1" parent="1">
          <mxGeometry x="440.03" y="730" width="120" height="60" as="geometry" />
        </mxCell>
        <mxCell id="L32mj8uIGyRKE1vUMHSN-63" style="edgeStyle=orthogonalEdgeStyle;rounded=0;orthogonalLoop=1;jettySize=auto;html=1;entryX=0.5;entryY=0;entryDx=0;entryDy=0;" edge="1" parent="1" source="L32mj8uIGyRKE1vUMHSN-64" target="L32mj8uIGyRKE1vUMHSN-65">
          <mxGeometry relative="1" as="geometry" />
        </mxCell>
        <mxCell id="L32mj8uIGyRKE1vUMHSN-64" value="Show success message" style="whiteSpace=wrap;html=1;rounded=1;" vertex="1" parent="1">
          <mxGeometry x="240.03" y="740" width="120" height="40" as="geometry" />
        </mxCell>
        <mxCell id="L32mj8uIGyRKE1vUMHSN-65" value="" style="ellipse;html=1;shape=endState;fillColor=strokeColor;" vertex="1" parent="1">
          <mxGeometry x="285.02" y="800" width="30" height="30" as="geometry" />
        </mxCell>
        <mxCell id="L32mj8uIGyRKE1vUMHSN-68" value="" style="edgeStyle=orthogonalEdgeStyle;rounded=0;sketch=0;orthogonalLoop=1;jettySize=auto;html=1;entryX=0.5;entryY=0.06;entryDx=0;entryDy=0;entryPerimeter=0;exitX=0.5;exitY=1;exitDx=0;exitDy=0;" edge="1" parent="1" source="L32mj8uIGyRKE1vUMHSN-37" target="L32mj8uIGyRKE1vUMHSN-59">
          <mxGeometry relative="1" as="geometry">
            <mxPoint x="500" y="630" as="sourcePoint" />
            <mxPoint x="500" y="640" as="targetPoint" />
            <Array as="points" />
          </mxGeometry>
        </mxCell>
      </root>
    </mxGraphModel>
  </diagram>
  <diagram id="8WKEXBLrCpuKLN1ayTfL" name="Page-2">
    <mxGraphModel dx="868" dy="1550" grid="1" gridSize="10" guides="1" tooltips="1" connect="1" arrows="1" fold="1" page="1" pageScale="1" pageWidth="850" pageHeight="1100" math="0" shadow="0">
      <root>
        <mxCell id="0" />
        <mxCell id="1" parent="0" />
        <mxCell id="r3QOSVzXojFrXa39fHA2-1" value="System" style="swimlane;whiteSpace=wrap;html=1;startSize=23;" vertex="1" parent="1">
          <mxGeometry x="400" y="-20" width="200" height="560" as="geometry" />
        </mxCell>
        <mxCell id="r3QOSVzXojFrXa39fHA2-2" value="Fetch individual top-up information&amp;nbsp;" style="whiteSpace=wrap;html=1;rounded=1;" vertex="1" parent="r3QOSVzXojFrXa39fHA2-1">
          <mxGeometry x="40" y="362" width="130" height="40" as="geometry" />
        </mxCell>
        <mxCell id="r3QOSVzXojFrXa39fHA2-3" value="" style="endArrow=none;html=1;rounded=0;" edge="1" parent="1">
          <mxGeometry width="50" height="50" relative="1" as="geometry">
            <mxPoint x="400.0000000000002" y="370" as="sourcePoint" />
            <mxPoint x="400.0000000000002" y="40" as="targetPoint" />
          </mxGeometry>
        </mxCell>
        <mxCell id="r3QOSVzXojFrXa39fHA2-4" style="edgeStyle=orthogonalEdgeStyle;rounded=0;orthogonalLoop=1;jettySize=auto;html=1;" edge="1" parent="1" source="r3QOSVzXojFrXa39fHA2-5">
          <mxGeometry relative="1" as="geometry">
            <mxPoint x="295.0000000000002" y="105" as="targetPoint" />
          </mxGeometry>
        </mxCell>
        <mxCell id="r3QOSVzXojFrXa39fHA2-5" value="" style="ellipse;fillColor=strokeColor;" vertex="1" parent="1">
          <mxGeometry x="280" y="40" width="30" height="30" as="geometry" />
        </mxCell>
        <mxCell id="r3QOSVzXojFrXa39fHA2-6" style="edgeStyle=orthogonalEdgeStyle;rounded=0;orthogonalLoop=1;jettySize=auto;html=1;entryX=0.5;entryY=1;entryDx=0;entryDy=0;" edge="1" parent="1" source="r3QOSVzXojFrXa39fHA2-10" target="r3QOSVzXojFrXa39fHA2-11">
          <mxGeometry relative="1" as="geometry">
            <Array as="points">
              <mxPoint x="215" y="155" />
            </Array>
          </mxGeometry>
        </mxCell>
        <mxCell id="r3QOSVzXojFrXa39fHA2-7" value="no" style="edgeLabel;html=1;align=center;verticalAlign=middle;resizable=0;points=[];" vertex="1" connectable="0" parent="r3QOSVzXojFrXa39fHA2-6">
          <mxGeometry x="-0.5833" y="-1" relative="1" as="geometry">
            <mxPoint x="5" y="1" as="offset" />
          </mxGeometry>
        </mxCell>
        <mxCell id="r3QOSVzXojFrXa39fHA2-8" style="edgeStyle=orthogonalEdgeStyle;rounded=0;orthogonalLoop=1;jettySize=auto;html=1;entryX=0.5;entryY=0;entryDx=0;entryDy=0;" edge="1" parent="1" source="r3QOSVzXojFrXa39fHA2-10">
          <mxGeometry relative="1" as="geometry">
            <mxPoint x="295" y="230" as="targetPoint" />
          </mxGeometry>
        </mxCell>
        <mxCell id="r3QOSVzXojFrXa39fHA2-9" value="yes" style="edgeLabel;html=1;align=center;verticalAlign=middle;resizable=0;points=[];" vertex="1" connectable="0" parent="r3QOSVzXojFrXa39fHA2-8">
          <mxGeometry x="-0.7677" relative="1" as="geometry">
            <mxPoint as="offset" />
          </mxGeometry>
        </mxCell>
        <mxCell id="r3QOSVzXojFrXa39fHA2-10" value="Authenticate ?" style="rhombus;" vertex="1" parent="1">
          <mxGeometry x="246.79" y="110" width="96.43" height="90" as="geometry" />
        </mxCell>
        <mxCell id="r3QOSVzXojFrXa39fHA2-11" value="" style="shape=sumEllipse;perimeter=ellipsePerimeter;whiteSpace=wrap;html=1;backgroundOutline=1;" vertex="1" parent="1">
          <mxGeometry x="200" y="50" width="30" height="30" as="geometry" />
        </mxCell>
        <mxCell id="r3QOSVzXojFrXa39fHA2-12" style="edgeStyle=orthogonalEdgeStyle;rounded=0;orthogonalLoop=1;jettySize=auto;html=1;entryX=1;entryY=0.5;entryDx=0;entryDy=0;" edge="1" parent="1" target="r3QOSVzXojFrXa39fHA2-5">
          <mxGeometry relative="1" as="geometry">
            <Array as="points">
              <mxPoint x="360" y="270" />
              <mxPoint x="360" y="55" />
            </Array>
            <mxPoint x="335" y="270" as="sourcePoint" />
          </mxGeometry>
        </mxCell>
        <mxCell id="r3QOSVzXojFrXa39fHA2-13" value="no" style="edgeLabel;html=1;align=center;verticalAlign=middle;resizable=0;points=[];" vertex="1" connectable="0" parent="r3QOSVzXojFrXa39fHA2-12">
          <mxGeometry x="-0.9586" y="2" relative="1" as="geometry">
            <mxPoint x="5" y="2" as="offset" />
          </mxGeometry>
        </mxCell>
        <mxCell id="r3QOSVzXojFrXa39fHA2-14" style="edgeStyle=orthogonalEdgeStyle;rounded=0;orthogonalLoop=1;jettySize=auto;html=1;entryX=0.5;entryY=0;entryDx=0;entryDy=0;" edge="1" parent="1" target="r3QOSVzXojFrXa39fHA2-18">
          <mxGeometry relative="1" as="geometry">
            <Array as="points">
              <mxPoint x="295" y="320" />
              <mxPoint x="295" y="320" />
            </Array>
            <mxPoint x="295" y="310" as="sourcePoint" />
          </mxGeometry>
        </mxCell>
        <mxCell id="r3QOSVzXojFrXa39fHA2-15" value="yes" style="edgeLabel;html=1;align=center;verticalAlign=middle;resizable=0;points=[];" vertex="1" connectable="0" parent="r3QOSVzXojFrXa39fHA2-14">
          <mxGeometry x="-0.2122" relative="1" as="geometry">
            <mxPoint as="offset" />
          </mxGeometry>
        </mxCell>
        <mxCell id="r3QOSVzXojFrXa39fHA2-16" value="You are here" style="text;html=1;strokeColor=none;fillColor=none;align=center;verticalAlign=middle;whiteSpace=wrap;rounded=0;" vertex="1" parent="1">
          <mxGeometry x="238.39999999999998" y="10" width="113.21" height="30" as="geometry" />
        </mxCell>
        <mxCell id="r3QOSVzXojFrXa39fHA2-17" style="edgeStyle=orthogonalEdgeStyle;rounded=0;orthogonalLoop=1;jettySize=auto;html=1;entryX=0;entryY=0.5;entryDx=0;entryDy=0;" edge="1" parent="1" source="r3QOSVzXojFrXa39fHA2-18" target="r3QOSVzXojFrXa39fHA2-2">
          <mxGeometry relative="1" as="geometry">
            <mxPoint x="375" y="362" as="targetPoint" />
          </mxGeometry>
        </mxCell>
        <mxCell id="r3QOSVzXojFrXa39fHA2-18" value="View&amp;nbsp; top-up" style="rounded=1;whiteSpace=wrap;html=1;" vertex="1" parent="1">
          <mxGeometry x="240.02" y="342" width="109.98" height="40" as="geometry" />
        </mxCell>
        <mxCell id="r3QOSVzXojFrXa39fHA2-19" value="Cient" style="swimlane;whiteSpace=wrap;html=1;startSize=23;" vertex="1" parent="1">
          <mxGeometry x="190" y="-20" width="210" height="560" as="geometry" />
        </mxCell>
        <mxCell id="r3QOSVzXojFrXa39fHA2-20" value="Display top-up information" style="whiteSpace=wrap;html=1;rounded=1;" vertex="1" parent="r3QOSVzXojFrXa39fHA2-19">
          <mxGeometry x="48" y="440" width="120" height="40" as="geometry" />
        </mxCell>
        <mxCell id="r3QOSVzXojFrXa39fHA2-22" style="edgeStyle=orthogonalEdgeStyle;rounded=0;orthogonalLoop=1;jettySize=auto;html=1;entryX=0.5;entryY=0;entryDx=0;entryDy=0;exitX=0.5;exitY=1;exitDx=0;exitDy=0;" edge="1" parent="r3QOSVzXojFrXa39fHA2-19" source="r3QOSVzXojFrXa39fHA2-20" target="r3QOSVzXojFrXa39fHA2-24">
          <mxGeometry relative="1" as="geometry">
            <mxPoint x="130" y="580" as="sourcePoint" />
          </mxGeometry>
        </mxCell>
        <mxCell id="r3QOSVzXojFrXa39fHA2-24" value="" style="ellipse;html=1;shape=endState;fillColor=strokeColor;" vertex="1" parent="r3QOSVzXojFrXa39fHA2-19">
          <mxGeometry x="93" y="520" width="30" height="30" as="geometry" />
        </mxCell>
        <mxCell id="r3QOSVzXojFrXa39fHA2-29" value="Authorize ?" style="rhombus;whiteSpace=wrap;html=1;rounded=1;" vertex="1" parent="1">
          <mxGeometry x="255.79" y="230" width="80" height="80" as="geometry" />
        </mxCell>
        <mxCell id="r3QOSVzXojFrXa39fHA2-30" style="edgeStyle=orthogonalEdgeStyle;rounded=0;orthogonalLoop=1;jettySize=auto;html=1;entryX=0.5;entryY=0;entryDx=0;entryDy=0;" edge="1" parent="1" source="r3QOSVzXojFrXa39fHA2-2" target="r3QOSVzXojFrXa39fHA2-20">
          <mxGeometry relative="1" as="geometry">
            <Array as="points">
              <mxPoint x="500" y="400" />
              <mxPoint x="298" y="400" />
            </Array>
          </mxGeometry>
        </mxCell>
      </root>
    </mxGraphModel>
  </diagram>
  <diagram id="zOL6v_8nKxXpewARgPNc" name="Page-3">
    <mxGraphModel dx="868" dy="450" grid="1" gridSize="10" guides="1" tooltips="1" connect="1" arrows="1" fold="1" page="1" pageScale="1" pageWidth="850" pageHeight="1100" math="0" shadow="0">
      <root>
        <mxCell id="0" />
        <mxCell id="1" parent="0" />
      </root>
    </mxGraphModel>
  </diagram>
</mxfile>
